<svg xmlns="http://www.w3.org/2000/svg" width="412" height="70" viewBox="0 0 412 162" version="1.1"><path d="M 103.500 32 C 108.979 37.500, 113.583 42, 113.731 42 C 113.879 42, 114 37.500, 114 32 L 114 22 103.769 22 L 93.538 22 103.500 32 M 27.001 25.752 C 20.799 28.851, 18.575 38.275, 22.732 43.842 C 28.977 52.207, 42 49.408, 45.108 39.033 C 46.061 35.855, 45.913 34.750, 44.048 31.095 C 40.666 24.464, 33.851 22.328, 27.001 25.752 M 30.693 29.205 C 27.164 31.776, 27.084 35.625, 30.526 37.194 C 33.467 38.534, 33.271 40.638, 30.246 40.202 C 26.701 39.692, 26.842 41.709, 30.501 43.868 C 32.426 45.004, 34 45.528, 34 45.034 C 34 44.539, 34.877 43.856, 35.949 43.516 C 39.677 42.333, 39.648 36.658, 35.908 35.471 C 33.574 34.730, 33.339 31.794, 35.646 32.206 C 36.552 32.368, 37.489 31.938, 37.730 31.250 C 37.970 30.563, 37.711 30, 37.155 30 C 36.598 30, 35.523 29.380, 34.764 28.622 C 33.593 27.450, 32.981 27.538, 30.693 29.205 M 81.500 47 C 72.713 55.800, 65.081 63, 64.541 63 C 64 63, 60.952 60.421, 57.766 57.269 L 51.974 51.537 41.491 62.021 L 31.008 72.504 34.495 76.424 L 37.983 80.344 45.055 73.517 L 52.128 66.689 57.843 72.344 C 60.986 75.455, 63.995 77.995, 64.529 77.990 C 65.063 77.984, 74.450 68.958, 85.389 57.931 L 105.279 37.883 101.943 34.441 C 100.109 32.549, 98.353 31, 98.042 31 C 97.731 31, 90.287 38.200, 81.500 47 M 71.364 33.493 C 71.018 34.396, 71.169 35.569, 71.700 36.100 C 73.099 37.499, 76.153 36.032, 75.788 34.136 C 75.364 31.935, 72.142 31.467, 71.364 33.493 M 124.180 54.250 C 124.356 55.487, 125.175 56.500, 126 56.500 C 126.825 56.500, 127.644 55.487, 127.820 54.250 C 128.065 52.518, 127.646 52, 126 52 C 124.354 52, 123.935 52.518, 124.180 54.250 M 93.667 70.667 C 93.300 71.033, 93 72.608, 93 74.167 L 93 77 108.500 77 L 124 77 124 73.500 L 124 70 109.167 70 C 101.008 70, 94.033 70.300, 93.667 70.667 M 366 106 L 366 131 368.961 131 L 371.922 131 372.211 122.250 L 372.500 113.500 379.333 122.250 C 384.973 129.473, 386.646 131, 388.916 131 C 390.429 131, 391.942 130.725, 392.278 130.388 C 392.615 130.052, 389.761 125.728, 385.937 120.779 L 378.984 111.783 382.092 108.243 C 383.801 106.296, 386.505 103.604, 388.100 102.262 C 391.793 99.155, 391.865 97, 388.275 97 C 386.251 97, 383.809 98.728, 378.775 103.723 L 372 110.446 372 95.723 L 372 81 369 81 L 366 81 366 106 M 132.814 93.250 C 132.549 98.338, 132.435 104.525, 132.561 107 C 132.686 109.475, 132.837 115.888, 132.895 121.250 L 133 131 136 131 L 139 131 139 120.500 L 139 110 147.393 110 C 155.768 110, 157.345 109.334, 156.269 106.250 C 155.967 105.384, 153.251 105, 147.417 105 L 139 105 139 97.500 C 139 93.375, 139.338 89.954, 139.750 89.899 C 140.162 89.843, 143.650 89.657, 147.500 89.486 C 151.350 89.314, 155.063 89.135, 155.750 89.087 C 156.438 89.039, 157 87.875, 157 86.500 L 157 84 145.148 84 L 133.295 84 132.814 93.250 M 165.384 85.442 C 164.230 88.450, 165.467 90.495, 168.628 90.804 C 171.107 91.046, 171.853 90.671, 172.301 88.957 C 172.610 87.775, 172.621 86.175, 172.325 85.404 C 171.616 83.556, 166.096 83.586, 165.384 85.442 M 233 86.500 C 233 89.183, 233.052 89.201, 241.500 89.389 L 246.500 89.500 247 110 L 247.500 130.500 250.750 130.813 L 254 131.127 254 110.563 L 254 90 257.250 89.805 C 259.038 89.698, 261.625 89.514, 263 89.397 C 264.375 89.280, 266.063 89.142, 266.750 89.092 C 267.438 89.041, 268 87.875, 268 86.500 L 268 84 250.500 84 L 233 84 233 86.500 M 94.170 87.874 C 93.414 88.353, 92.982 89.966, 93.170 91.609 L 93.500 94.500 108.500 94.500 L 123.500 94.500 123.830 91.609 C 124.018 89.966, 123.586 88.353, 122.830 87.874 C 122.099 87.410, 115.650 87.031, 108.500 87.031 C 101.350 87.031, 94.901 87.410, 94.170 87.874 M 21.571 93.571 C 19.712 95.431, 19.696 95.564, 21.035 98.066 C 22.722 101.217, 28 99.933, 28 96.371 C 28 94.968, 25.284 92, 24 92 C 23.529 92, 22.436 92.707, 21.571 93.571 M 192.500 98.469 C 188.826 101.480, 188 101.578, 188 99 C 188 97.533, 187.333 97, 185.500 97 C 184.125 97, 182.971 97.112, 182.935 97.250 C 182.397 99.307, 181.987 125.116, 182.453 127.600 C 183.007 130.556, 183.477 131, 186.045 131 L 189 131 189 118.952 C 189 107.179, 189.061 106.848, 191.672 104.428 C 195.237 101.124, 198.472 100.424, 201.379 102.329 C 204.284 104.232, 204.724 106.391, 204.838 119.316 C 204.887 124.917, 204.943 129.838, 204.963 130.250 C 204.984 130.662, 206.350 131, 208 131 L 211 131 211 118.468 C 211 104.872, 209.915 100.455, 205.883 97.631 C 202.342 95.150, 196.069 95.543, 192.500 98.469 M 282.217 98.581 C 280.412 100.019, 279.003 100.814, 279.086 100.348 C 279.510 97.966, 278.764 97, 276.500 97 L 274 97 274 114 L 274 131 277 131 L 280 131 280 119.516 C 280 108.271, 280.060 107.964, 282.884 104.804 C 285.274 102.129, 286.400 101.618, 289.454 101.824 C 292.945 102.059, 293.123 101.925, 292.820 99.286 C 292.545 96.892, 292.008 96.462, 289 96.233 C 286.458 96.039, 284.602 96.682, 282.217 98.581 M 303 97.306 C 300.291 98.230, 299.428 99.122, 299.184 101.250 C 298.824 104.371, 300.133 104.711, 304 102.500 C 309.998 99.071, 318 101.676, 318 107.057 C 318 109.853, 317.788 110, 313.743 110 C 301.160 110, 294.234 117.368, 298.455 126.264 C 301.357 132.380, 308.988 133.854, 315.360 129.530 C 318.812 127.188, 319 127.162, 319 129.030 C 319 130.465, 319.679 131, 321.500 131 L 324 131 324 117.547 C 324 102.786, 323.204 99.674, 318.855 97.425 C 315.550 95.716, 307.833 95.658, 303 97.306 M 339.952 98.253 C 332.952 102.971, 330.375 113.008, 333.734 122.477 C 336.812 131.152, 345.680 134.504, 354.466 130.315 C 357.275 128.975, 358 128.052, 358 125.815 C 358 122.460, 358.001 122.460, 353.261 125 C 348.367 127.623, 345.720 127.524, 342.306 124.587 C 339.657 122.308, 339.500 121.715, 339.500 114 C 339.500 106.285, 339.657 105.692, 342.306 103.413 C 345.720 100.476, 348.367 100.377, 353.261 103 C 357.959 105.518, 358 105.513, 358 102.485 C 358 96.654, 346.371 93.927, 339.952 98.253 M 60.945 99.645 C 58.969 104.843, 59.647 105.078, 75.729 104.777 L 90.500 104.500 90.500 101 L 90.500 97.500 76.236 97.222 L 61.971 96.945 60.945 99.645 M 93.400 98.400 C 93.093 99.200, 92.990 100.900, 93.171 102.177 C 93.499 104.490, 93.566 104.500, 108.500 104.500 L 123.500 104.500 123.500 101 L 123.500 97.500 108.729 97.223 C 96.548 96.995, 93.860 97.201, 93.400 98.400 M 166 114 L 166 131 169 131 L 172 131 172 114 L 172 97 169 97 L 166 97 166 114 M 60.860 109.409 C 58.460 114.675, 59.581 115.080, 75.729 114.777 L 90.500 114.500 90.500 111 L 90.500 107.500 76.241 107.222 L 61.982 106.945 60.860 109.409 M 94.170 107.840 C 93.419 108.335, 92.984 109.976, 93.170 111.609 L 93.500 114.500 108.500 114.500 L 123.500 114.500 123.500 111 L 123.500 107.500 109.500 107.231 C 101.800 107.084, 94.901 107.357, 94.170 107.840 M 308.323 115.696 C 305.165 116.311, 303.819 118.413, 304.182 122.167 C 304.633 126.843, 308.672 128.227, 313.823 125.469 C 317.061 123.735, 317.537 122.992, 317.807 119.250 L 318.115 115 314.307 115.136 C 312.213 115.211, 309.520 115.463, 308.323 115.696 M 28 121.500 L 28 125 43 125 L 58 125 58 121.500 L 58 118 43 118 L 28 118 28 121.500 M 60.187 121.250 L 60.500 124.500 75.500 124.500 L 90.500 124.500 90.813 121.250 L 91.127 118 75.500 118 L 59.873 118 60.187 121.250 M 93.187 121.250 L 93.500 124.500 108.750 124.776 L 124 125.052 124 121.526 L 124 118 108.437 118 L 92.873 118 93.187 121.250 M 28 131.500 L 28 135 43 135 L 58 135 58 131.500 L 58 128 43 128 L 28 128 28 131.500 M 60.384 129.442 C 60.080 130.234, 59.987 131.697, 60.178 132.692 C 60.492 134.327, 61.982 134.526, 75.763 134.776 L 91 135.052 91 131.526 L 91 128 75.969 128 C 63.801 128, 60.832 128.275, 60.384 129.442 M 93.394 129.415 C 93.084 130.222, 92.988 131.697, 93.179 132.692 C 93.497 134.340, 94.852 134.500, 108.514 134.500 L 123.500 134.500 123.500 131.500 L 123.500 128.500 108.729 128.223 C 96.483 127.994, 93.861 128.197, 93.394 129.415" stroke="none" fill="#d174d9" fill-rule="evenodd"/><path d="M 0 81.002 L 0 162.005 206.250 161.752 L 412.500 161.500 412.756 80.750 L 413.012 0 206.506 0 L 0 0 0 81.002 M 0.477 81.500 C 0.477 126.050, 0.599 144.421, 0.750 122.325 C 0.900 100.228, 0.900 63.778, 0.750 41.325 C 0.600 18.871, 0.477 36.950, 0.477 81.500 M 103.500 32 C 108.979 37.500, 113.583 42, 113.731 42 C 113.879 42, 114 37.500, 114 32 L 114 22 103.769 22 L 93.538 22 103.500 32 M 27.001 25.752 C 20.799 28.851, 18.575 38.275, 22.732 43.842 C 28.977 52.207, 42 49.408, 45.108 39.033 C 46.061 35.855, 45.913 34.750, 44.048 31.095 C 40.666 24.464, 33.851 22.328, 27.001 25.752 M 30.693 29.205 C 27.164 31.776, 27.084 35.625, 30.526 37.194 C 33.467 38.534, 33.271 40.638, 30.246 40.202 C 26.701 39.692, 26.842 41.709, 30.501 43.868 C 32.426 45.004, 34 45.528, 34 45.034 C 34 44.539, 34.877 43.856, 35.949 43.516 C 39.677 42.333, 39.648 36.658, 35.908 35.471 C 33.574 34.730, 33.339 31.794, 35.646 32.206 C 36.552 32.368, 37.489 31.938, 37.730 31.250 C 37.970 30.563, 37.711 30, 37.155 30 C 36.598 30, 35.523 29.380, 34.764 28.622 C 33.593 27.450, 32.981 27.538, 30.693 29.205 M 81.500 47 C 72.713 55.800, 65.081 63, 64.541 63 C 64 63, 60.952 60.421, 57.766 57.269 L 51.974 51.537 41.491 62.021 L 31.008 72.504 34.495 76.424 L 37.983 80.344 45.055 73.517 L 52.128 66.689 57.843 72.344 C 60.986 75.455, 63.995 77.995, 64.529 77.990 C 65.063 77.984, 74.450 68.958, 85.389 57.931 L 105.279 37.883 101.943 34.441 C 100.109 32.549, 98.353 31, 98.042 31 C 97.731 31, 90.287 38.200, 81.500 47 M 71.364 33.493 C 71.018 34.396, 71.169 35.569, 71.700 36.100 C 73.099 37.499, 76.153 36.032, 75.788 34.136 C 75.364 31.935, 72.142 31.467, 71.364 33.493 M 124.180 54.250 C 124.356 55.487, 125.175 56.500, 126 56.500 C 126.825 56.500, 127.644 55.487, 127.820 54.250 C 128.065 52.518, 127.646 52, 126 52 C 124.354 52, 123.935 52.518, 124.180 54.250 M 93.667 70.667 C 93.300 71.033, 93 72.608, 93 74.167 L 93 77 108.500 77 L 124 77 124 73.500 L 124 70 109.167 70 C 101.008 70, 94.033 70.300, 93.667 70.667 M 366 106 L 366 131 368.961 131 L 371.922 131 372.211 122.250 L 372.500 113.500 379.333 122.250 C 384.973 129.473, 386.646 131, 388.916 131 C 390.429 131, 391.942 130.725, 392.278 130.388 C 392.615 130.052, 389.761 125.728, 385.937 120.779 L 378.984 111.783 382.092 108.243 C 383.801 106.296, 386.505 103.604, 388.100 102.262 C 391.793 99.155, 391.865 97, 388.275 97 C 386.251 97, 383.809 98.728, 378.775 103.723 L 372 110.446 372 95.723 L 372 81 369 81 L 366 81 366 106 M 132.814 93.250 C 132.549 98.338, 132.435 104.525, 132.561 107 C 132.686 109.475, 132.837 115.888, 132.895 121.250 L 133 131 136 131 L 139 131 139 120.500 L 139 110 147.393 110 C 155.768 110, 157.345 109.334, 156.269 106.250 C 155.967 105.384, 153.251 105, 147.417 105 L 139 105 139 97.500 C 139 93.375, 139.338 89.954, 139.750 89.899 C 140.162 89.843, 143.650 89.657, 147.500 89.486 C 151.350 89.314, 155.063 89.135, 155.750 89.087 C 156.438 89.039, 157 87.875, 157 86.500 L 157 84 145.148 84 L 133.295 84 132.814 93.250 M 165.384 85.442 C 164.230 88.450, 165.467 90.495, 168.628 90.804 C 171.107 91.046, 171.853 90.671, 172.301 88.957 C 172.610 87.775, 172.621 86.175, 172.325 85.404 C 171.616 83.556, 166.096 83.586, 165.384 85.442 M 233 86.500 C 233 89.183, 233.052 89.201, 241.500 89.389 L 246.500 89.500 247 110 L 247.500 130.500 250.750 130.813 L 254 131.127 254 110.563 L 254 90 257.250 89.805 C 259.038 89.698, 261.625 89.514, 263 89.397 C 264.375 89.280, 266.063 89.142, 266.750 89.092 C 267.438 89.041, 268 87.875, 268 86.500 L 268 84 250.500 84 L 233 84 233 86.500 M 94.170 87.874 C 93.414 88.353, 92.982 89.966, 93.170 91.609 L 93.500 94.500 108.500 94.500 L 123.500 94.500 123.830 91.609 C 124.018 89.966, 123.586 88.353, 122.830 87.874 C 122.099 87.410, 115.650 87.031, 108.500 87.031 C 101.350 87.031, 94.901 87.410, 94.170 87.874 M 21.571 93.571 C 19.712 95.431, 19.696 95.564, 21.035 98.066 C 22.722 101.217, 28 99.933, 28 96.371 C 28 94.968, 25.284 92, 24 92 C 23.529 92, 22.436 92.707, 21.571 93.571 M 192.500 98.469 C 188.826 101.480, 188 101.578, 188 99 C 188 97.533, 187.333 97, 185.500 97 C 184.125 97, 182.971 97.112, 182.935 97.250 C 182.397 99.307, 181.987 125.116, 182.453 127.600 C 183.007 130.556, 183.477 131, 186.045 131 L 189 131 189 118.952 C 189 107.179, 189.061 106.848, 191.672 104.428 C 195.237 101.124, 198.472 100.424, 201.379 102.329 C 204.284 104.232, 204.724 106.391, 204.838 119.316 C 204.887 124.917, 204.943 129.838, 204.963 130.250 C 204.984 130.662, 206.350 131, 208 131 L 211 131 211 118.468 C 211 104.872, 209.915 100.455, 205.883 97.631 C 202.342 95.150, 196.069 95.543, 192.500 98.469 M 282.217 98.581 C 280.412 100.019, 279.003 100.814, 279.086 100.348 C 279.510 97.966, 278.764 97, 276.500 97 L 274 97 274 114 L 274 131 277 131 L 280 131 280 119.516 C 280 108.271, 280.060 107.964, 282.884 104.804 C 285.274 102.129, 286.400 101.618, 289.454 101.824 C 292.945 102.059, 293.123 101.925, 292.820 99.286 C 292.545 96.892, 292.008 96.462, 289 96.233 C 286.458 96.039, 284.602 96.682, 282.217 98.581 M 303 97.306 C 300.291 98.230, 299.428 99.122, 299.184 101.250 C 298.824 104.371, 300.133 104.711, 304 102.500 C 309.998 99.071, 318 101.676, 318 107.057 C 318 109.853, 317.788 110, 313.743 110 C 301.160 110, 294.234 117.368, 298.455 126.264 C 301.357 132.380, 308.988 133.854, 315.360 129.530 C 318.812 127.188, 319 127.162, 319 129.030 C 319 130.465, 319.679 131, 321.500 131 L 324 131 324 117.547 C 324 102.786, 323.204 99.674, 318.855 97.425 C 315.550 95.716, 307.833 95.658, 303 97.306 M 339.952 98.253 C 332.952 102.971, 330.375 113.008, 333.734 122.477 C 336.812 131.152, 345.680 134.504, 354.466 130.315 C 357.275 128.975, 358 128.052, 358 125.815 C 358 122.460, 358.001 122.460, 353.261 125 C 348.367 127.623, 345.720 127.524, 342.306 124.587 C 339.657 122.308, 339.500 121.715, 339.500 114 C 339.500 106.285, 339.657 105.692, 342.306 103.413 C 345.720 100.476, 348.367 100.377, 353.261 103 C 357.959 105.518, 358 105.513, 358 102.485 C 358 96.654, 346.371 93.927, 339.952 98.253 M 60.945 99.645 C 58.969 104.843, 59.647 105.078, 75.729 104.777 L 90.500 104.500 90.500 101 L 90.500 97.500 76.236 97.222 L 61.971 96.945 60.945 99.645 M 93.400 98.400 C 93.093 99.200, 92.990 100.900, 93.171 102.177 C 93.499 104.490, 93.566 104.500, 108.500 104.500 L 123.500 104.500 123.500 101 L 123.500 97.500 108.729 97.223 C 96.548 96.995, 93.860 97.201, 93.400 98.400 M 166 114 L 166 131 169 131 L 172 131 172 114 L 172 97 169 97 L 166 97 166 114 M 60.860 109.409 C 58.460 114.675, 59.581 115.080, 75.729 114.777 L 90.500 114.500 90.500 111 L 90.500 107.500 76.241 107.222 L 61.982 106.945 60.860 109.409 M 94.170 107.840 C 93.419 108.335, 92.984 109.976, 93.170 111.609 L 93.500 114.500 108.500 114.500 L 123.500 114.500 123.500 111 L 123.500 107.500 109.500 107.231 C 101.800 107.084, 94.901 107.357, 94.170 107.840 M 308.323 115.696 C 305.165 116.311, 303.819 118.413, 304.182 122.167 C 304.633 126.843, 308.672 128.227, 313.823 125.469 C 317.061 123.735, 317.537 122.992, 317.807 119.250 L 318.115 115 314.307 115.136 C 312.213 115.211, 309.520 115.463, 308.323 115.696 M 28 121.500 L 28 125 43 125 L 58 125 58 121.500 L 58 118 43 118 L 28 118 28 121.500 M 60.187 121.250 L 60.500 124.500 75.500 124.500 L 90.500 124.500 90.813 121.250 L 91.127 118 75.500 118 L 59.873 118 60.187 121.250 M 93.187 121.250 L 93.500 124.500 108.750 124.776 L 124 125.052 124 121.526 L 124 118 108.437 118 L 92.873 118 93.187 121.250 M 28 131.500 L 28 135 43 135 L 58 135 58 131.500 L 58 128 43 128 L 28 128 28 131.500 M 60.384 129.442 C 60.080 130.234, 59.987 131.697, 60.178 132.692 C 60.492 134.327, 61.982 134.526, 75.763 134.776 L 91 135.052 91 131.526 L 91 128 75.969 128 C 63.801 128, 60.832 128.275, 60.384 129.442 M 93.394 129.415 C 93.084 130.222, 92.988 131.697, 93.179 132.692 C 93.497 134.340, 94.852 134.500, 108.514 134.500 L 123.500 134.500 123.500 131.500 L 123.500 128.500 108.729 128.223 C 96.483 127.994, 93.861 128.197, 93.394 129.415" stroke="none" fill="#fff" fill-rule="evenodd"/></svg>